<mxfile modified="2023-08-04T09:22:54.924Z" host="app.diagrams.net" agent="5.0 (Macintosh; Intel Mac OS X 10_15_7) AppleWebKit/537.36 (KHTML, like Gecko) Chrome/114.0.0.0 Safari/537.36" etag="_qdZV24oOlXz_PeA2ZbS" version="20.6.2" type="github">
  <diagram id="d1ab7348-05c3-a1e3-ca4d-12c340fd6b49" name="Page-1">
    <mxGraphModel dx="1783" dy="1001" grid="1" gridSize="10" guides="1" tooltips="1" connect="1" arrows="1" fold="1" page="1" pageScale="1" pageWidth="1169" pageHeight="827" background="none" math="0" shadow="0">
      <root>
        <mxCell id="0" />
        <mxCell id="1" parent="0" />
        <mxCell id="1sWVrzsCKU_WeUki-e9a-431" style="edgeStyle=orthogonalEdgeStyle;shape=connector;rounded=0;orthogonalLoop=1;jettySize=auto;html=1;exitX=1;exitY=0.5;exitDx=0;exitDy=0;entryX=0;entryY=0.5;entryDx=0;entryDy=0;dashed=0;labelBackgroundColor=none;strokeColor=#4284F3;strokeWidth=2;fontFamily=Helvetica;fontSize=15;fontColor=#9E9E9E;startArrow=none;startFill=0;endArrow=blockThin;endFill=1;startSize=4;endSize=4;" edge="1" parent="1" source="1sWVrzsCKU_WeUki-e9a-412" target="1sWVrzsCKU_WeUki-e9a-413">
          <mxGeometry relative="1" as="geometry" />
        </mxCell>
        <mxCell id="1sWVrzsCKU_WeUki-e9a-412" value="采集&#xa;模块" style="dashed=0;shadow=1;strokeWidth=1;labelPosition=center;verticalLabelPosition=middle;align=left;verticalAlign=middle;spacingLeft=5;fontSize=12;sketch=0;strokeColor=#DDDDDD;" vertex="1" parent="1">
          <mxGeometry x="116" y="430" width="34" height="140" as="geometry" />
        </mxCell>
        <mxCell id="1sWVrzsCKU_WeUki-e9a-432" style="edgeStyle=orthogonalEdgeStyle;shape=connector;rounded=0;orthogonalLoop=1;jettySize=auto;html=1;exitX=1;exitY=0.5;exitDx=0;exitDy=0;entryX=0;entryY=0.5;entryDx=0;entryDy=0;dashed=0;labelBackgroundColor=none;strokeColor=#4284F3;strokeWidth=2;fontFamily=Helvetica;fontSize=15;fontColor=#9E9E9E;startArrow=none;startFill=0;endArrow=blockThin;endFill=1;startSize=4;endSize=4;" edge="1" parent="1" source="1sWVrzsCKU_WeUki-e9a-413" target="1sWVrzsCKU_WeUki-e9a-414">
          <mxGeometry relative="1" as="geometry" />
        </mxCell>
        <mxCell id="1sWVrzsCKU_WeUki-e9a-413" value="前&#xa;处理" style="dashed=0;strokeColor=#dddddd;shadow=1;strokeWidth=1;labelPosition=center;verticalLabelPosition=middle;align=left;verticalAlign=middle;spacingLeft=5;fontSize=12;" vertex="1" parent="1">
          <mxGeometry x="181" y="430" width="34" height="140" as="geometry" />
        </mxCell>
        <mxCell id="1sWVrzsCKU_WeUki-e9a-433" style="edgeStyle=orthogonalEdgeStyle;shape=connector;rounded=0;orthogonalLoop=1;jettySize=auto;html=1;exitX=1;exitY=0.5;exitDx=0;exitDy=0;entryX=0;entryY=0.5;entryDx=0;entryDy=0;dashed=0;labelBackgroundColor=none;strokeColor=#4284F3;strokeWidth=2;fontFamily=Helvetica;fontSize=15;fontColor=#9E9E9E;startArrow=none;startFill=0;endArrow=blockThin;endFill=1;startSize=4;endSize=4;" edge="1" parent="1" source="1sWVrzsCKU_WeUki-e9a-414" target="1sWVrzsCKU_WeUki-e9a-415">
          <mxGeometry relative="1" as="geometry" />
        </mxCell>
        <mxCell id="1sWVrzsCKU_WeUki-e9a-414" value="编码&#xa;模块" style="dashed=0;strokeColor=#dddddd;shadow=1;strokeWidth=1;labelPosition=center;verticalLabelPosition=middle;align=left;verticalAlign=middle;spacingLeft=5;fontSize=12;" vertex="1" parent="1">
          <mxGeometry x="246" y="430" width="34" height="140" as="geometry" />
        </mxCell>
        <mxCell id="1sWVrzsCKU_WeUki-e9a-434" style="edgeStyle=orthogonalEdgeStyle;shape=connector;rounded=0;orthogonalLoop=1;jettySize=auto;html=1;exitX=0.5;exitY=0;exitDx=0;exitDy=0;entryX=0;entryY=0.5;entryDx=0;entryDy=0;dashed=0;labelBackgroundColor=none;strokeColor=#4284F3;strokeWidth=2;fontFamily=Helvetica;fontSize=15;fontColor=#9E9E9E;startArrow=none;startFill=0;endArrow=blockThin;endFill=1;startSize=4;endSize=4;" edge="1" parent="1" source="1sWVrzsCKU_WeUki-e9a-415" target="2">
          <mxGeometry relative="1" as="geometry" />
        </mxCell>
        <mxCell id="1sWVrzsCKU_WeUki-e9a-415" value="网络&#xa;模块" style="dashed=0;strokeColor=#dddddd;shadow=1;strokeWidth=1;labelPosition=center;verticalLabelPosition=middle;align=left;verticalAlign=middle;spacingLeft=5;fontSize=12;" vertex="1" parent="1">
          <mxGeometry x="311.5" y="430" width="34" height="140" as="geometry" />
        </mxCell>
        <mxCell id="1sWVrzsCKU_WeUki-e9a-426" value="" style="group" vertex="1" connectable="0" parent="1">
          <mxGeometry x="350" y="30" width="438.5" height="360" as="geometry" />
        </mxCell>
        <mxCell id="2" value="&lt;b&gt;创新弱网对抗策略&lt;/b&gt;" style="fillColor=#F6F6F6;strokeColor=none;shadow=0;gradientColor=none;fontSize=14;align=left;spacing=10;fontColor=#717171;9E9E9E;verticalAlign=top;spacingTop=-4;fontStyle=0;spacingLeft=40;html=1;container=0;" parent="1sWVrzsCKU_WeUki-e9a-426" vertex="1">
          <mxGeometry width="438.5" height="360" as="geometry" />
        </mxCell>
        <mxCell id="3" value="" style="shape=mxgraph.gcp2.google_cloud_platform;fillColor=#F6F6F6;strokeColor=none;shadow=0;gradientColor=none;" parent="1sWVrzsCKU_WeUki-e9a-426" vertex="1">
          <mxGeometry x="20" y="10" width="23" height="20" as="geometry">
            <mxPoint x="20" y="10" as="offset" />
          </mxGeometry>
        </mxCell>
        <mxCell id="1sWVrzsCKU_WeUki-e9a-423" value="" style="group;fillColor=#cdeb8b;strokeColor=none;" vertex="1" connectable="0" parent="1sWVrzsCKU_WeUki-e9a-426">
          <mxGeometry x="298.5" y="50" width="120" height="290" as="geometry" />
        </mxCell>
        <mxCell id="1sWVrzsCKU_WeUki-e9a-424" value="&lt;font color=&quot;#9e9e9e&quot;&gt;下行策略&lt;/font&gt;" style="sketch=0;points=[[0,0,0],[0.25,0,0],[0.5,0,0],[0.75,0,0],[1,0,0],[1,0.25,0],[1,0.5,0],[1,0.75,0],[1,1,0],[0.75,1,0],[0.5,1,0],[0.25,1,0],[0,1,0],[0,0.75,0],[0,0.5,0],[0,0.25,0]];rounded=1;absoluteArcSize=1;arcSize=2;html=1;strokeColor=none;shadow=0;dashed=0;fontSize=12;align=left;verticalAlign=top;spacing=10;spacingTop=-4;fillColor=#cdeb8b;fontFamily=Helvetica;" vertex="1" parent="1sWVrzsCKU_WeUki-e9a-423">
          <mxGeometry width="120" height="290" as="geometry" />
        </mxCell>
        <mxCell id="1sWVrzsCKU_WeUki-e9a-425" value="- 动态缓冲区&#xa;- 丢包补偿&#xa;- 动态大小流&#xa;- 音频优先" style="dashed=0;strokeColor=none;shadow=0;strokeWidth=1;labelPosition=center;verticalLabelPosition=middle;align=left;verticalAlign=middle;spacingLeft=5;fontSize=12;fontFamily=Helvetica;fontColor=#666666;" vertex="1" parent="1sWVrzsCKU_WeUki-e9a-423">
          <mxGeometry x="10" y="30" width="100" height="245" as="geometry" />
        </mxCell>
        <mxCell id="1sWVrzsCKU_WeUki-e9a-420" value="" style="group;fillColor=#cdeb8b;strokeColor=none;" vertex="1" connectable="0" parent="1sWVrzsCKU_WeUki-e9a-426">
          <mxGeometry x="20" y="50" width="120" height="290" as="geometry" />
        </mxCell>
        <mxCell id="1sWVrzsCKU_WeUki-e9a-421" value="&lt;font color=&quot;#9e9e9e&quot;&gt;上行策略&lt;/font&gt;" style="sketch=0;points=[[0,0,0],[0.25,0,0],[0.5,0,0],[0.75,0,0],[1,0,0],[1,0.25,0],[1,0.5,0],[1,0.75,0],[1,1,0],[0.75,1,0],[0.5,1,0],[0.25,1,0],[0,1,0],[0,0.75,0],[0,0.5,0],[0,0.25,0]];rounded=1;absoluteArcSize=1;arcSize=2;html=1;strokeColor=none;shadow=0;dashed=0;fontSize=12;align=left;verticalAlign=top;spacing=10;spacingTop=-4;fillColor=#cce5ff;fontFamily=Helvetica;" vertex="1" parent="1sWVrzsCKU_WeUki-e9a-420">
          <mxGeometry width="120" height="290" as="geometry" />
        </mxCell>
        <mxCell id="1sWVrzsCKU_WeUki-e9a-422" value="- 动态缓冲区&#xa;- 丢包重传&#xa;- I帧拆分&#xa;- 帧率自适应&#xa;- 码率自适应&#xa;- 音频优先" style="dashed=0;strokeColor=none;shadow=0;strokeWidth=1;labelPosition=center;verticalLabelPosition=middle;align=left;verticalAlign=middle;spacingLeft=5;fontSize=12;fontFamily=Helvetica;fontColor=#666666;" vertex="1" parent="1sWVrzsCKU_WeUki-e9a-420">
          <mxGeometry x="10" y="30" width="100" height="245" as="geometry" />
        </mxCell>
        <mxCell id="1sWVrzsCKU_WeUki-e9a-419" value="" style="group" vertex="1" connectable="0" parent="1sWVrzsCKU_WeUki-e9a-426">
          <mxGeometry x="159.25" y="50" width="120" height="290" as="geometry" />
        </mxCell>
        <mxCell id="1sWVrzsCKU_WeUki-e9a-418" value="网络状态" style="sketch=0;points=[[0,0,0],[0.25,0,0],[0.5,0,0],[0.75,0,0],[1,0,0],[1,0.25,0],[1,0.5,0],[1,0.75,0],[1,1,0],[0.75,1,0],[0.5,1,0],[0.25,1,0],[0,1,0],[0,0.75,0],[0,0.5,0],[0,0.25,0]];rounded=1;absoluteArcSize=1;arcSize=2;html=1;strokeColor=none;gradientColor=none;shadow=0;dashed=0;fontSize=12;fontColor=#9E9E9E;align=left;verticalAlign=top;spacing=10;spacingTop=-4;fillColor=#F3E5F5;fontFamily=Helvetica;" vertex="1" parent="1sWVrzsCKU_WeUki-e9a-419">
          <mxGeometry width="120" height="290" as="geometry" />
        </mxCell>
        <mxCell id="1sWVrzsCKU_WeUki-e9a-416" value="- 丢包率&#xa;- 延时&#xa;- 抖动&#xa;- 带宽预估&#xa;- 设备性能&#xa;" style="dashed=0;strokeColor=none;shadow=0;strokeWidth=1;labelPosition=center;verticalLabelPosition=middle;align=left;verticalAlign=middle;spacingLeft=5;fontSize=12;fontFamily=Helvetica;fontColor=#666666;" vertex="1" parent="1sWVrzsCKU_WeUki-e9a-419">
          <mxGeometry x="10" y="30" width="100" height="245" as="geometry" />
        </mxCell>
        <mxCell id="1sWVrzsCKU_WeUki-e9a-436" style="edgeStyle=orthogonalEdgeStyle;shape=connector;rounded=0;orthogonalLoop=1;jettySize=auto;html=1;entryX=0;entryY=0.5;entryDx=0;entryDy=0;dashed=0;labelBackgroundColor=none;strokeColor=#4284F3;strokeWidth=2;fontFamily=Helvetica;fontSize=15;fontColor=#9E9E9E;startArrow=none;startFill=0;endArrow=blockThin;endFill=1;startSize=4;endSize=4;" edge="1" parent="1" source="1sWVrzsCKU_WeUki-e9a-427" target="1sWVrzsCKU_WeUki-e9a-428">
          <mxGeometry relative="1" as="geometry" />
        </mxCell>
        <mxCell id="1sWVrzsCKU_WeUki-e9a-427" value="网络&#xa;模块" style="dashed=0;strokeColor=#dddddd;shadow=1;strokeWidth=1;labelPosition=center;verticalLabelPosition=middle;align=left;verticalAlign=middle;spacingLeft=5;fontSize=12;" vertex="1" parent="1">
          <mxGeometry x="800" y="430" width="34" height="140" as="geometry" />
        </mxCell>
        <mxCell id="1sWVrzsCKU_WeUki-e9a-437" style="edgeStyle=orthogonalEdgeStyle;shape=connector;rounded=0;orthogonalLoop=1;jettySize=auto;html=1;exitX=1;exitY=0.5;exitDx=0;exitDy=0;dashed=0;labelBackgroundColor=none;strokeColor=#4284F3;strokeWidth=2;fontFamily=Helvetica;fontSize=15;fontColor=#9E9E9E;startArrow=none;startFill=0;endArrow=blockThin;endFill=1;startSize=4;endSize=4;" edge="1" parent="1" source="1sWVrzsCKU_WeUki-e9a-428" target="1sWVrzsCKU_WeUki-e9a-429">
          <mxGeometry relative="1" as="geometry" />
        </mxCell>
        <mxCell id="1sWVrzsCKU_WeUki-e9a-428" value="解码&#xa;模块" style="dashed=0;strokeColor=#dddddd;shadow=1;strokeWidth=1;labelPosition=center;verticalLabelPosition=middle;align=left;verticalAlign=middle;spacingLeft=5;fontSize=12;" vertex="1" parent="1">
          <mxGeometry x="867" y="430" width="34" height="140" as="geometry" />
        </mxCell>
        <mxCell id="1sWVrzsCKU_WeUki-e9a-438" style="edgeStyle=orthogonalEdgeStyle;shape=connector;rounded=0;orthogonalLoop=1;jettySize=auto;html=1;exitX=1;exitY=0.5;exitDx=0;exitDy=0;entryX=0;entryY=0.5;entryDx=0;entryDy=0;dashed=0;labelBackgroundColor=none;strokeColor=#4284F3;strokeWidth=2;fontFamily=Helvetica;fontSize=15;fontColor=#9E9E9E;startArrow=none;startFill=0;endArrow=blockThin;endFill=1;startSize=4;endSize=4;" edge="1" parent="1" source="1sWVrzsCKU_WeUki-e9a-429" target="1sWVrzsCKU_WeUki-e9a-430">
          <mxGeometry relative="1" as="geometry" />
        </mxCell>
        <mxCell id="1sWVrzsCKU_WeUki-e9a-429" value="后&#xa;处理" style="dashed=0;strokeColor=#dddddd;shadow=1;strokeWidth=1;labelPosition=center;verticalLabelPosition=middle;align=left;verticalAlign=middle;spacingLeft=5;fontSize=12;" vertex="1" parent="1">
          <mxGeometry x="933" y="430" width="34" height="140" as="geometry" />
        </mxCell>
        <mxCell id="1sWVrzsCKU_WeUki-e9a-430" value="渲染&#xa;播放" style="dashed=0;strokeColor=#dddddd;shadow=1;strokeWidth=1;labelPosition=center;verticalLabelPosition=middle;align=left;verticalAlign=middle;spacingLeft=5;fontSize=12;" vertex="1" parent="1">
          <mxGeometry x="1000" y="430" width="34" height="140" as="geometry" />
        </mxCell>
        <mxCell id="1sWVrzsCKU_WeUki-e9a-435" style="edgeStyle=orthogonalEdgeStyle;shape=connector;rounded=0;orthogonalLoop=1;jettySize=auto;html=1;dashed=0;labelBackgroundColor=none;strokeColor=#4284F3;strokeWidth=2;fontFamily=Helvetica;fontSize=15;fontColor=#9E9E9E;startArrow=none;startFill=0;endArrow=blockThin;endFill=1;startSize=4;endSize=4;" edge="1" parent="1" source="2" target="1sWVrzsCKU_WeUki-e9a-427">
          <mxGeometry relative="1" as="geometry" />
        </mxCell>
      </root>
    </mxGraphModel>
  </diagram>
</mxfile>
